<?xml version="1.0" standalone="no"?>
<!DOCTYPE svg PUBLIC "-//W3C//DTD SVG 20010904//EN"
 "http://www.w3.org/TR/2001/REC-SVG-20010904/DTD/svg10.dtd">
<svg version="1.0" xmlns="http://www.w3.org/2000/svg"
 width="420.000000pt" height="420.000000pt" viewBox="0 0 420.000000 420.000000"
 preserveAspectRatio="xMidYMid meet">
<metadata>
Created by potrace 1.14, written by Peter Selinger 2001-2017
</metadata>
<g transform="translate(0.000000,420.000000) scale(0.100000,-0.100000)"
fill="#000000" stroke="none">
<path d="M2118 4172 c-17 -3 -18 -26 -18 -303 l0 -299 -31 0 -32 0 5 300 5
300 -74 0 c-141 0 -331 -39 -538 -110 -459 -159 -861 -494 -1126 -939 -261
-437 -343 -986 -228 -1520 86 -397 343 -815 669 -1086 370 -308 959 -509 1405
-480 552 36 1054 262 1403 630 346 365 538 827 559 1345 24 590 -211 1162
-654 1591 -255 247 -576 424 -937 518 -118 31 -363 63 -408 53z m250 -244 c17
-17 15 -43 -4 -59 -31 -26 -70 25 -44 56 15 18 32 19 48 3z m-559 -72 l34 -35
-29 -35 c-16 -19 -32 -35 -36 -35 -4 -1 -23 16 -42 37 l-35 37 32 33 c17 17
34 32 37 32 3 0 21 -16 39 -34z m-338 -2 c9 -11 10 -20 2 -32 -13 -22 -43 -22
-56 -1 -24 38 25 68 54 33z m1219 -14 c8 -15 6 -24 -10 -40 -11 -11 -26 -17
-35 -14 -17 7 -30 47 -20 63 11 18 54 12 65 -9z m231 -211 c9 -18 7 -25 -14
-46 l-24 -25 -27 23 c-31 27 -32 29 -5 63 16 21 24 24 39 16 11 -6 25 -20 31
-31z m-1701 -20 c23 -41 -38 -68 -63 -27 -8 12 -7 21 2 32 19 22 48 20 61 -5z
m435 1 c14 -44 -44 -69 -65 -29 -9 15 -8 24 1 35 18 21 57 18 64 -6z m885 -55
c26 -31 -13 -82 -44 -56 -21 18 -20 48 2 60 23 14 28 13 42 -4z m670 -120
c-28 -30 -28 -30 -65 0 l-29 24 29 31 29 30 30 -29 30 -30 -24 -26z m-1765 28
c9 -16 34 -41 56 -57 l40 -28 -29 -18 c-16 -10 -42 -35 -57 -54 l-28 -37 -24
36 c-13 19 -37 42 -53 50 -40 20 -38 38 6 58 22 11 39 28 46 47 12 37 22 38
43 3z m700 8 c79 -36 135 -131 120 -204 -17 -79 -85 -142 -167 -153 -84 -12
-164 33 -199 111 -70 154 92 316 246 246z m578 -129 l27 -28 -30 -29 -30 -29
-32 32 -32 31 25 25 c32 32 40 31 72 -2z m-1926 -27 c13 -19 41 -45 63 -57 22
-13 40 -28 40 -34 0 -6 -18 -19 -40 -29 -22 -10 -40 -21 -40 -24 0 -3 -11 -19
-23 -35 l-24 -29 -38 42 c-21 23 -51 49 -67 57 -15 8 -28 18 -28 22 0 4 16 16
36 27 20 11 48 37 62 57 13 21 27 38 31 38 3 0 16 -16 28 -35z m2361 -47 c18
-18 14 -46 -7 -58 -34 -18 -67 30 -39 58 7 7 17 12 23 12 6 0 16 -5 23 -12z
m321 -91 c6 -12 25 -31 41 -42 17 -11 30 -23 30 -27 0 -4 -22 -30 -50 -58
l-49 -51 -15 30 c-9 16 -29 39 -46 51 l-30 21 47 49 c27 26 51 48 54 49 3 1
11 -9 18 -22z m-476 -39 c20 -15 13 -53 -10 -62 -33 -13 -57 36 -31 62 15 15
20 15 41 0z m-1793 -23 c26 -32 -15 -78 -45 -49 -18 19 -19 36 -3 52 16 16 33
15 48 -3z m1526 -88 c35 -38 36 -45 3 -67 l-30 -22 -30 28 -29 28 27 28 c32
34 32 34 59 5z m-1293 -28 c15 -24 1 -49 -27 -49 -29 0 -44 33 -25 56 15 18
38 15 52 -7z m657 -139 c3 -47 11 -95 18 -108 11 -20 11 -27 -3 -48 -34 -52
-113 -6 -86 52 6 14 11 60 11 103 0 84 4 93 35 89 18 -3 21 -12 25 -88z m272
36 c22 -32 -7 -86 -45 -86 -27 0 -57 28 -57 54 0 26 9 40 35 54 20 11 52 1 67
-22z m-517 -20 c19 -29 9 -58 -27 -77 -19 -10 -25 -8 -45 15 -29 34 -29 51 -1
70 32 23 55 20 73 -8z m-1155 -116 c-20 -19 -39 -41 -41 -49 -4 -10 -21 2 -55
36 l-50 50 45 45 46 44 46 -45 47 -46 -38 -35z m2925 -37 c25 -26 45 -47 45
-48 0 -1 -20 -23 -45 -48 l-45 -48 -12 26 c-6 14 -27 35 -45 46 l-33 21 40 39
c22 21 40 43 40 49 0 17 9 11 55 -37z m-3237 -45 c18 -18 15 -46 -7 -57 -14
-8 -22 -6 -35 8 -21 23 -20 37 2 50 22 13 26 13 40 -1z m1713 -47 c-6 -10 -7
-21 -4 -25 3 -3 1 -6 -5 -6 -7 0 -12 3 -12 6 0 9 20 44 26 44 2 0 0 -8 -5 -19z
m156 -16 c0 -17 -13 -20 -21 -6 -4 5 0 12 6 14 7 3 13 6 14 6 0 1 1 -6 1 -14z
m-566 -18 c-10 -9 -11 -8 -5 6 3 10 9 15 12 12 3 -3 0 -11 -7 -18z m496 1 c-3
-8 -6 -5 -6 6 -1 11 2 17 5 13 3 -3 4 -12 1 -19z m-454 -31 c-3 -5 1 -14 8
-19 12 -8 11 -9 -1 -5 -8 2 -14 12 -13 21 1 14 -4 16 -20 12 -20 -5 -20 -4 -5
8 10 7 17 15 15 17 -1 2 3 -2 10 -10 7 -8 10 -18 6 -24z m177 33 c0 -5 -7 -7
-15 -4 -8 4 -15 8 -15 10 0 2 7 4 15 4 8 0 15 -4 15 -10z m395 0 c3 -5 1 -10
-4 -10 -6 0 -11 5 -11 10 0 6 2 10 4 10 3 0 8 -4 11 -10z m136 -18 c-7 -2 -18
1 -23 6 -8 8 -4 9 13 5 13 -4 18 -8 10 -11z m-463 -34 c7 2 12 0 12 -5 0 -5
-26 -9 -57 -10 -38 -1 -51 1 -38 7 11 4 23 6 28 3 4 -2 7 3 7 11 0 9 -5 16
-11 16 -5 0 -7 5 -4 10 4 7 15 2 29 -13 12 -13 27 -22 34 -19z m57 21 c4 -10
11 -19 16 -19 24 0 5 -16 -21 -18 -16 -1 -30 2 -30 8 0 5 5 9 11 8 6 -2 14 3
16 10 4 9 -3 11 -20 8 -18 -3 -24 -1 -21 8 8 20 42 16 49 -5z m79 -6 l-7 -28
22 19 c18 17 21 17 15 3 -3 -10 -1 -17 5 -17 6 0 11 4 11 9 0 5 9 7 20 4 39
-10 19 -19 -45 -20 -49 -1 -65 2 -65 13 0 7 6 11 14 8 9 -3 17 3 21 15 9 31
16 25 9 -6z m226 7 c0 -16 7 -20 35 -20 19 0 35 -4 35 -8 0 -11 -61 -2 -77 10
-15 12 -17 38 -3 38 6 0 10 -9 10 -20z m184 6 c-3 -8 -13 -16 -22 -18 -11 -3
-7 -6 11 -10 22 -4 27 -2 22 10 -4 12 -3 13 10 2 19 -16 15 -20 -24 -25 -40
-5 -50 13 -20 36 29 23 30 23 23 5z m-144 -6 c0 -5 -2 -10 -4 -10 -3 0 -8 5
-11 10 -3 6 -1 10 4 10 6 0 11 -4 11 -10z m-117 -18 c4 8 6 7 6 -4 1 -20 -26
-24 -49 -7 -12 9 -12 10 4 5 14 -5 17 -2 12 11 -6 17 -5 17 8 0 10 -14 15 -15
19 -5z m187 14 c0 -2 -7 -7 -16 -10 -8 -3 -12 -2 -9 4 6 10 25 14 25 6z m-790
-17 c0 -8 6 -7 18 2 14 11 15 11 4 -1 -7 -8 -29 -15 -50 -17 -37 -2 -37 -2
-12 12 31 17 40 18 40 4z m170 -11 c0 -6 -7 -7 -16 -4 -9 3 -20 6 -25 6 -5 0
-9 4 -9 9 0 4 11 6 25 3 14 -2 25 -9 25 -14z m-285 2 c3 -5 -1 -10 -10 -10 -9
0 -13 5 -10 10 3 6 8 10 10 10 2 0 7 -4 10 -10z m45 -2 c0 -4 -7 -8 -15 -8 -8
0 -15 4 -15 8 0 5 7 9 15 9 8 0 15 -4 15 -9z m275 2 c-3 -5 -10 -10 -16 -10
-5 0 -9 5 -9 10 0 6 7 10 16 10 8 0 12 -4 9 -10z m442 4 c-3 -3 -12 -4 -19 -1
-8 3 -5 6 6 6 11 1 17 -2 13 -5z m160 0 c-3 -3 -12 -4 -19 -1 -8 3 -5 6 6 6
11 1 17 -2 13 -5z m1393 -125 c0 -20 -28 -39 -48 -32 -7 3 -17 13 -22 24 -8
14 -6 23 11 40 20 20 22 20 40 3 10 -9 19 -25 19 -35z m-3528 14 c33 -29 18
-63 -27 -63 -8 0 -19 9 -25 21 -9 16 -8 25 6 40 21 23 23 23 46 2z m2426 -451
c2 -312 0 -394 -11 -397 -7 -3 -118 -4 -246 -3 l-234 3 52 33 c83 54 99 111
40 143 -17 9 -27 7 -50 -10 -15 -12 -29 -21 -31 -21 -2 0 -2 29 0 64 3 55 0
68 -17 85 l-21 21 -70 -35 c-85 -43 -121 -44 -195 -5 -31 17 -66 30 -76 30
-27 0 -38 -37 -32 -103 6 -60 1 -66 -31 -42 -30 23 -65 19 -77 -9 -20 -42 -3
-74 59 -114 l57 -37 -235 -3 c-212 -2 -236 -1 -247 15 -10 13 -13 108 -13 393
0 207 3 380 7 383 3 4 313 6 687 5 l681 -3 3 -393z m-1778 -110 c-39 -26 -55
-50 -25 -38 8 3 15 3 15 0 0 -2 -12 -9 -27 -15 -22 -8 -30 -7 -40 6 -7 11 -17
14 -25 9 -10 -6 -11 -5 -1 7 10 12 6 18 -18 34 -16 11 -29 23 -29 27 0 4 21
27 47 51 l46 44 49 -50 48 -49 -40 -26z m2264 103 c9 -13 28 -35 43 -49 l27
-25 -28 -26 c-15 -14 -24 -30 -21 -35 3 -6 -1 -7 -9 -4 -9 3 -17 1 -17 -5 -3
-26 -4 -30 -12 -38 -9 -8 -13 -9 -42 -12 -9 -1 -12 -7 -9 -18 5 -14 4 -15 -4
-4 -6 8 -12 9 -16 3 -3 -5 1 -13 10 -16 24 -9 44 -7 44 5 0 5 -4 7 -10 4 -5
-3 -10 -1 -10 4 0 6 9 11 21 11 14 0 19 -5 16 -14 -4 -9 0 -13 11 -11 9 2 20
4 23 4 3 1 6 8 6 16 0 12 -3 12 -15 2 -13 -10 -14 -9 -4 9 6 12 8 24 5 28 -3
3 -2 6 4 6 16 0 32 -44 22 -62 -5 -9 -6 -19 -1 -22 4 -3 16 15 25 39 14 40 14
46 1 60 -16 15 -8 20 12 7 11 -7 11 -18 0 -71 -3 -14 -3 -20 0 -13 3 6 11 12
18 12 8 0 12 10 11 25 -2 14 1 27 5 30 5 3 7 -4 5 -15 -2 -12 -1 -28 2 -37 5
-14 7 -14 15 0 5 10 15 14 25 10 12 -5 15 -2 10 10 -3 9 -2 17 2 17 14 0 19
-23 7 -36 -6 -6 -15 -11 -21 -9 -5 1 -7 0 -3 -2 5 -3 6 -14 4 -26 -1 -12 -1
-16 1 -10 2 7 15 12 29 11 19 -2 23 -7 18 -23 -4 -16 -3 -17 5 -5 6 8 11 27
11 43 0 27 13 36 25 17 3 -5 1 -10 -4 -10 -6 0 -11 -7 -11 -15 0 -9 9 -15 21
-15 15 0 19 -5 15 -15 -8 -22 2 -18 14 5 6 11 7 20 3 19 -25 -4 -46 2 -37 11
18 18 54 0 55 -29 l1 -26 7 25 c7 24 7 24 19 5 6 -11 12 -15 12 -10 0 6 4 4 9
-4 5 -8 11 -9 15 -3 3 6 -2 13 -12 17 -14 4 -18 12 -14 30 4 21 1 24 -14 18
-16 -6 -16 -5 2 13 12 13 20 15 22 8 2 -7 14 -15 28 -18 20 -5 24 -11 19 -29
-4 -13 -3 -17 2 -10 5 6 20 16 35 22 23 9 25 8 21 -12 -5 -21 -5 -21 9 -3 8
10 20 16 26 12 6 -4 21 -2 32 4 13 7 20 7 20 0 0 -5 5 -10 11 -10 5 0 7 5 3
12 -4 7 -3 8 5 4 6 -4 9 -16 6 -27 -4 -11 -2 -19 4 -19 6 0 11 16 11 35 0 24
5 35 15 35 8 0 15 -5 15 -11 0 -5 -4 -7 -10 -4 -6 3 -10 -4 -10 -17 0 -18 2
-20 10 -8 5 8 10 10 10 4 0 -6 10 -16 23 -22 14 -7 17 -11 6 -11 -8 -1 -20 4
-26 10 -8 8 -13 8 -17 0 -4 -6 0 -11 8 -11 9 0 16 -4 16 -9 0 -16 35 -1 49 21
7 11 8 17 2 14 -5 -4 -12 -2 -16 4 -4 6 -11 8 -16 5 -5 -4 -9 0 -9 8 0 7 7 14
15 14 8 0 15 -4 15 -8 0 -5 7 -6 15 -3 17 7 22 -31 5 -41 -5 -3 -7 -12 -4 -20
4 -8 11 -12 16 -9 13 9 4 -49 -26 -151 l-23 -80 -114 -5 -114 -5 45 -22 c25
-12 67 -27 93 -34 35 -8 47 -16 45 -28 -3 -14 -29 -16 -234 -16 l-232 0 34
-20 c18 -11 74 -46 124 -79 86 -55 96 -59 168 -65 l77 -6 -37 -38 c-34 -37
-37 -38 -59 -24 -27 17 -378 32 -464 20 l-49 -6 31 -26 c16 -14 61 -53 98 -86
l68 -60 129 -5 c127 -5 129 -5 114 -25 -13 -18 -24 -19 -103 -17 l-88 3 43
-43 c44 -46 49 -57 32 -74 -8 -8 -29 7 -70 50 l-59 61 -260 3 -260 3 77 -141
77 -141 168 0 c96 0 167 -4 167 -9 0 -5 -11 -17 -24 -25 -20 -13 -49 -16 -155
-13 -72 2 -131 2 -131 0 0 -1 18 -39 41 -84 38 -76 40 -82 24 -97 -10 -9 -19
-12 -22 -6 -2 6 -25 48 -51 95 l-48 85 -894 0 -894 0 -48 -85 c-26 -46 -50
-86 -55 -87 -4 -2 -14 1 -22 6 -11 7 -6 24 28 86 22 42 41 78 41 81 0 2 -57 4
-128 4 -99 0 -132 3 -150 16 -44 31 -25 35 140 33 l161 -2 69 119 c39 65 74
129 79 142 l9 23 -257 -3 -258 -3 -59 -58 c-56 -54 -60 -56 -77 -41 -17 16
-16 18 28 58 l46 42 -72 -3 c-75 -3 -111 7 -111 32 0 12 20 15 113 15 l112 0
102 87 c56 47 100 90 97 95 -3 5 -109 8 -234 7 -198 -1 -233 -3 -262 -19 l-32
-17 -29 36 -29 36 64 5 c66 5 96 19 251 116 l71 44 -226 0 c-202 0 -227 2
-232 17 -7 18 9 33 35 33 9 0 43 12 75 28 l59 27 -104 5 -104 5 -28 95 c-25
84 -44 175 -40 197 0 5 4 8 9 9 37 4 60 17 54 32 -5 14 -4 14 9 2 9 -8 14 -24
11 -37 -4 -22 7 -31 22 -16 3 4 13 8 22 9 12 2 13 -1 3 -12 -14 -17 -10 -17
28 -4 l28 10 -24 -20 c-25 -22 -21 -26 10 -9 15 7 24 7 35 -2 10 -8 14 -8 14
0 0 6 -7 14 -15 17 -8 4 -12 10 -9 15 3 5 10 7 15 4 5 -4 9 -1 9 4 0 6 5 11
11 11 6 0 8 -9 4 -20 -4 -14 -2 -18 7 -15 16 6 52 -20 44 -33 -3 -5 1 -9 9 -9
10 0 11 5 4 19 -11 21 -6 22 22 8 17 -9 19 -7 19 17 0 20 3 24 9 14 12 -18 2
-51 -15 -51 -8 0 -14 -7 -14 -15 0 -12 3 -12 20 2 11 10 20 23 20 30 0 7 6 13
14 13 16 0 29 -27 19 -42 -4 -7 -1 -8 6 -4 7 5 10 15 7 23 -5 11 -1 13 16 7
21 -6 21 -6 5 10 -9 10 -20 15 -25 12 -4 -2 -14 -1 -22 5 -10 6 0 9 33 9 30 0
46 4 42 10 -4 6 -11 7 -17 4 -6 -4 -8 -2 -4 4 3 6 2 13 -4 17 -14 9 -12 25 3
23 7 -2 11 5 9 17 -2 15 -1 17 6 6 6 -7 16 -10 23 -6 8 4 3 -2 -10 -13 -23
-18 -22 -50 1 -36 7 4 8 2 4 -4 -4 -7 -2 -12 5 -12 8 0 7 -5 -2 -17 -12 -14
-12 -16 1 -11 21 7 23 56 2 60 -13 3 -12 5 6 10 17 5 22 2 22 -12 0 -20 30
-36 31 -17 0 7 3 6 6 -3 4 -10 10 -4 19 20 l13 35 -5 -37 c-4 -25 -2 -38 5
-38 9 0 16 36 12 63 0 4 3 7 9 7 5 0 10 8 11 18 0 9 3 12 5 5 3 -7 0 -21 -6
-33 -7 -14 -8 -25 -2 -33 6 -7 12 -21 15 -32 4 -18 5 -18 6 3 0 12 6 22 12 22
6 0 9 -7 5 -15 -3 -8 -1 -15 4 -15 6 0 10 9 10 20 0 11 -7 20 -15 20 -8 0 -15
5 -15 10 0 6 9 10 20 10 12 0 20 -7 20 -17 0 -14 2 -15 18 -1 9 9 23 13 31 10
8 -3 11 0 7 7 -4 6 -3 11 1 11 5 0 14 -9 21 -21 8 -12 10 -19 5 -16 -4 3 -14
-2 -21 -9 -12 -13 -9 -14 15 -9 15 4 33 8 40 10 6 2 13 -1 16 -8 2 -6 6 -3 10
7 4 10 3 15 -3 11 -6 -3 -10 -1 -10 4 0 6 12 11 28 10 15 0 21 -3 13 -6 -11
-5 -11 -7 0 -14 10 -6 11 -9 2 -9 -7 0 -13 -7 -13 -15 0 -8 9 -15 20 -15 11 0
20 -5 20 -12 0 -6 3 -8 7 -4 5 4 -1 14 -12 23 -20 15 -20 15 0 13 34 -4 46 0
40 10 -3 6 -1 10 5 10 8 0 8 6 0 20 -7 14 -7 20 0 20 5 0 10 -4 10 -10 0 -5
11 -10 24 -10 14 0 27 -4 31 -9 3 -6 -7 -9 -22 -8 -24 2 -28 -2 -29 -25 -1
-15 3 -25 8 -22 4 3 6 10 3 15 -4 5 -1 9 4 9 6 0 11 -4 11 -9 0 -5 9 -13 20
-16 17 -5 18 -10 9 -28 -9 -17 -9 -19 0 -11 7 6 14 20 15 30 2 13 10 18 25 16
25 -4 28 16 4 34 -17 12 -17 13 -1 14 9 0 19 8 21 18 3 9 5 -35 6 -98 l1 -115
-70 -38 c-39 -21 -70 -39 -70 -40 0 -1 24 -1 52 1 63 3 88 -9 69 -32 -11 -13
-35 -16 -114 -16 -95 0 -103 -2 -149 -31 -26 -17 -48 -32 -48 -33 0 0 56 0
125 2 69 2 125 0 125 -5 -1 -33 -20 -38 -172 -43 l-153 -5 -100 -62 c-163
-101 -172 -92 87 -93 l227 0 -1 -47 c-1 -59 20 -103 69 -140 l36 -28 912 -3
911 -2 45 28 c54 35 79 81 79 149 l0 48 222 -3 223 -2 -115 77 -115 78 -159 5
c-145 5 -160 7 -172 25 -12 18 -11 20 14 21 15 0 77 1 137 3 l110 3 -60 29
c-54 26 -70 29 -156 29 -74 0 -99 4 -109 15 -22 26 -10 32 73 34 l52 2 -56 32
c-80 46 -91 57 -85 83 4 13 7 59 7 104 0 44 5 80 10 80 5 0 9 -5 9 -11 0 -5 5
-7 11 -3 8 4 7 9 -2 15 -10 6 -5 9 16 9 17 0 26 -4 20 -8 -5 -4 -11 -13 -13
-21 -3 -12 -1 -12 13 -1 14 11 16 11 13 -1 -2 -10 9 -13 51 -11 48 3 53 1 41
-12 -10 -13 -10 -19 0 -31 7 -8 18 -15 24 -15 6 0 3 5 -6 11 -22 12 -23 29 -3
29 8 0 15 4 15 8 0 5 7 17 16 28 12 14 14 15 11 3 -4 -13 -1 -15 14 -12 10 3
19 10 19 15 0 5 -5 6 -12 2 -7 -4 -8 -3 -4 5 6 9 11 9 21 1 8 -7 19 -9 24 -6
17 11 -9 65 -40 83 -35 21 -37 40 -6 54 12 6 32 23 42 40 24 35 28 36 49 4z
m-2211 -119 c10 -8 15 -16 10 -18 -4 -3 -16 3 -25 14 -21 21 -11 24 15 4z
m1941 -27 c-3 -5 -13 -9 -22 -9 -14 0 -14 2 -3 9 8 5 11 16 7 27 -6 18 -5 18
9 0 8 -10 12 -23 9 -27z m340 33 c2 -4 -5 -9 -17 -9 -17 -2 -19 0 -7 7 18 12
18 12 24 2z m246 -27 c0 -5 -5 -3 -10 5 -5 8 -10 20 -10 25 0 6 5 3 10 -5 5
-8 10 -19 10 -25z m-2466 17 c2 -4 0 -14 -6 -22 -8 -12 -9 -12 -5 2 3 9 1 19
-6 22 -9 3 -9 5 0 5 6 1 14 -3 17 -7z m2526 -6 c0 -3 -4 -8 -10 -11 -5 -3 -10
-1 -10 4 0 6 5 11 10 11 6 0 10 -2 10 -4z m-3240 -41 c0 -5 -5 -3 -10 5 -5 8
-10 20 -10 25 0 6 5 3 10 -5 5 -8 10 -19 10 -25z m70 24 c0 -5 -4 -7 -10 -4
-5 3 -10 1 -10 -4 0 -6 -5 -11 -11 -11 -8 0 -8 5 1 15 14 17 30 20 30 4z m547
-2 c0 -8 -6 -14 -14 -14 -9 0 -10 4 -2 14 6 7 12 13 14 13 1 0 2 -6 2 -13z
m2448 3 c3 -6 -1 -7 -9 -4 -18 7 -21 14 -7 14 6 0 13 -4 16 -10z m45 0 c0 -5
-5 -10 -11 -10 -5 0 -7 5 -4 10 3 6 8 10 11 10 2 0 4 -4 4 -10z m35 0 c-3 -5
-12 -10 -18 -10 -7 0 -6 4 3 10 19 12 23 12 15 0z m-2677 -18 c2 -7 -3 -12
-12 -12 -9 0 -16 7 -16 16 0 17 22 14 28 -4z m2082 8 c0 -5 -4 -10 -10 -10 -5
0 -10 5 -10 10 0 6 5 10 10 10 6 0 10 -4 10 -10z m131 -10 c13 0 17 -5 12 -16
-5 -13 -7 -13 -14 -2 -7 10 -9 10 -9 1 0 -7 -9 -13 -20 -13 -17 0 -18 3 -8 26
7 15 14 21 16 15 2 -6 12 -11 23 -11z m63 11 c3 -4 -6 -6 -19 -3 -14 2 -25 6
-25 8 0 8 39 4 44 -5z m791 -12 c-5 -16 -4 -19 5 -14 9 6 11 4 5 -4 -10 -18
-27 2 -19 22 9 25 17 21 9 -4z m-3320 -18 c-6 -5 -25 10 -25 20 0 5 6 4 14 -3
8 -7 12 -15 11 -17z m2805 19 c-8 -5 -19 -10 -25 -10 -5 0 -3 5 5 10 8 5 20
10 25 10 6 0 3 -5 -5 -10z m197 4 c-3 -3 -12 -4 -19 -1 -8 3 -5 6 6 6 11 1 17
-2 13 -5z m40 0 c-3 -3 -12 -4 -19 -1 -8 3 -5 6 6 6 11 1 17 -2 13 -5z m-3440
-26 c-3 -8 -6 -5 -6 6 -1 11 2 17 5 13 3 -3 4 -12 1 -19z m163 17 c0 -7 -30
-13 -34 -7 -3 4 4 9 15 9 10 1 19 0 19 -2z m630 -16 c0 -14 -26 -11 -39 5 -9
11 -6 12 14 8 14 -2 25 -8 25 -13z m2117 -11 c-3 -7 -5 -2 -5 12 0 14 2 19 5
13 2 -7 2 -19 0 -25z m403 18 c-10 -10 -2 -36 11 -36 5 0 9 6 9 14 0 14 29 31
38 21 3 -2 -3 -7 -12 -11 -21 -8 -21 -34 1 -34 9 0 14 -3 10 -6 -3 -3 -22 -1
-41 6 -24 8 -36 18 -36 30 0 11 -9 20 -22 23 -13 2 -6 4 14 3 21 0 33 -5 28
-10z m190 3 c0 -4 -10 -9 -22 -11 -16 -2 -22 -9 -21 -23 1 -11 0 -14 -3 -7 -3
6 -13 12 -22 12 -12 0 -9 6 11 18 28 19 57 25 57 11z m-3282 -34 c-2 -2 -18
-6 -35 -10 -30 -5 -53 8 -38 23 3 3 10 0 15 -8 8 -12 10 -12 10 4 0 13 5 17
20 13 11 -3 21 0 21 6 1 7 3 4 6 -6 3 -10 3 -20 1 -22z m132 25 c0 -5 -7 -6
-17 -3 -11 4 -14 3 -9 -6 4 -6 24 -10 44 -9 20 2 38 -1 39 -7 2 -12 -78 -8
-91 5 -4 4 -5 13 -2 19 9 14 36 15 36 1z m3260 -5 c0 -9 -6 -12 -16 -8 -13 5
-13 7 -2 14 17 11 18 11 18 -6z m-3580 -5 c0 -5 -5 -10 -11 -10 -5 0 -7 5 -4
10 3 6 8 10 11 10 2 0 4 -4 4 -10z m282 -30 c4 0 8 -8 8 -17 0 -14 -4 -13 -21
6 -12 12 -24 20 -27 16 -4 -3 0 -10 8 -15 8 -5 11 -12 7 -16 -10 -10 -37 16
-37 36 0 27 11 30 33 9 11 -10 24 -19 29 -19z m2956 33 c-10 -2 -19 -9 -19
-14 -1 -5 -2 -13 -3 -19 0 -5 -4 -10 -8 -10 -5 0 -13 0 -18 0 -6 0 -3 11 7 25
10 13 27 24 38 24 17 -1 17 -2 3 -6z m252 -2 c0 -5 -11 -11 -25 -13 -14 -3
-25 -2 -25 3 0 4 10 10 23 12 12 2 23 5 25 6 1 0 2 -3 2 -8z m40 -7 c0 -7 -5
-16 -12 -20 -7 -4 -8 -3 -4 4 4 7 2 12 -3 12 -6 0 -11 4 -11 8 0 5 7 9 15 9 8
0 15 -6 15 -13z m-2676 -9 c-4 -8 -9 -15 -13 -15 -4 0 -8 7 -8 15 0 8 6 15 13
15 8 0 11 -6 8 -15z m2863 -47 c-2 -13 -4 -5 -4 17 -1 22 1 32 4 23 2 -10 2
-28 0 -40z m-2762 23 c-3 -6 -14 -11 -23 -11 -15 1 -15 2 2 15 21 16 32 13 21
-4z m1651 -408 c108 -166 110 -169 95 -187 -12 -14 -103 -16 -851 -16 -461 0
-845 3 -854 6 -9 3 -16 15 -16 26 0 17 96 181 149 255 l16 22 695 1 696 0 70
-107z m-568 -930 l49 -47 -49 -48 c-28 -27 -51 -48 -52 -46 -30 48 -41 61 -62
70 -26 12 -33 48 -9 48 8 0 27 16 42 35 15 19 29 35 30 35 1 0 24 -21 51 -47z
m-628 -18 l24 -26 -26 -25 -25 -26 -29 25 -29 25 24 26 c30 32 32 32 61 1z"/>
<path d="M2001 2212 c-48 -24 -73 -62 -78 -119 -13 -148 164 -220 266 -109 37
39 41 128 9 176 -28 42 -80 70 -128 70 -19 0 -50 -8 -69 -18z"/>
<path d="M880 1760 c0 -5 4 -10 9 -10 6 0 13 5 16 10 3 6 -1 10 -9 10 -9 0
-16 -4 -16 -10z"/>
<path d="M2972 1740 c7 -10 14 -18 15 -16 6 6 -9 36 -18 36 -5 0 -4 -9 3 -20z"/>
<path d="M3000 1739 c0 -11 5 -17 10 -14 6 3 13 -1 17 -11 6 -16 7 -15 20 2
15 21 17 44 3 44 -5 0 -7 -7 -4 -15 4 -8 1 -15 -5 -15 -7 0 -14 7 -17 15 -9
22 -24 18 -24 -6z"/>
<path d="M233 1743 c-7 -2 -13 -9 -13 -14 0 -6 8 -5 20 1 16 9 20 8 20 -5 0
-8 5 -15 11 -15 6 0 8 7 5 16 -3 9 -6 18 -6 20 0 5 -21 4 -37 -3z"/>
<path d="M703 1743 c4 -6 3 -14 -3 -18 -6 -4 -7 -13 -1 -23 5 -10 6 -24 1 -33
-6 -11 -5 -16 4 -16 13 0 14 36 1 56 -6 11 12 15 50 13 20 -2 20 -2 0 13 -13
10 -21 12 -23 5 -3 -7 -9 -7 -20 2 -10 8 -13 9 -9 1z"/>
<path d="M786 1734 c-8 -20 -8 -24 2 -24 4 0 8 9 9 20 2 24 -3 26 -11 4z"/>
<path d="M3590 1739 c0 -4 7 -9 15 -13 9 -3 15 0 15 8 0 7 -7 13 -15 13 -8 0
-15 -4 -15 -8z"/>
<path d="M868 1733 c7 -3 16 -2 19 1 4 3 -2 6 -13 5 -11 0 -14 -3 -6 -6z"/>
<path d="M938 1729 c-10 -5 -18 -15 -18 -21 0 -6 8 -4 18 5 10 10 22 14 25 10
4 -3 7 -1 7 5 0 14 -9 15 -32 1z"/>
<path d="M2940 1730 c0 -5 5 -10 11 -10 5 0 7 5 4 10 -3 6 -8 10 -11 10 -2 0
-4 -4 -4 -10z"/>
<path d="M3654 1718 c-10 -12 -14 -18 -7 -15 7 5 14 -1 18 -14 7 -20 8 -21 17
-5 5 10 7 20 4 23 -3 4 -6 0 -6 -8 0 -12 -2 -12 -10 1 -5 9 -5 19 2 27 18 22
2 14 -18 -9z"/>
<path d="M3710 1727 c0 -7 12 -13 28 -14 15 0 19 1 10 4 -10 2 -18 9 -18 14 0
5 -4 9 -10 9 -5 0 -10 -6 -10 -13z"/>
<path d="M891 1716 c-7 -8 -8 -17 -3 -20 6 -3 12 3 15 14 6 24 4 25 -12 6z"/>
<path d="M988 1723 c7 -3 16 -2 19 1 4 3 -2 6 -13 5 -11 0 -14 -3 -6 -6z"/>
<path d="M3770 1720 c0 -5 5 -10 11 -10 5 0 7 5 4 10 -3 6 -8 10 -11 10 -2 0
-4 -4 -4 -10z"/>
<path d="M282 1705 c-11 -13 -9 -15 15 -14 15 0 22 3 15 6 -6 2 -10 9 -6 14 9
15 -10 10 -24 -6z"/>
<path d="M830 1710 c-8 -5 -10 -10 -5 -10 6 0 17 5 25 10 8 5 11 10 5 10 -5 0
-17 -5 -25 -10z"/>
<path d="M3056 1705 c-9 -26 -7 -32 5 -12 6 10 9 21 6 23 -2 3 -7 -2 -11 -11z"/>
<path d="M3207 1706 c-17 -13 -16 -14 3 -19 12 -3 18 -1 14 5 -4 6 0 14 7 19
8 5 10 9 4 9 -5 -1 -18 -7 -28 -14z"/>
<path d="M750 1695 c-8 -9 -8 -15 -2 -15 12 0 26 19 19 26 -2 2 -10 -2 -17
-11z"/>
<path d="M944 1692 c-8 -13 -8 -20 1 -29 9 -8 12 -4 12 18 0 16 -1 29 -1 29
-1 0 -6 -8 -12 -18z"/>
<path d="M978 1703 c7 -3 16 -2 19 1 4 3 -2 6 -13 5 -11 0 -14 -3 -6 -6z"/>
<path d="M350 1690 c-21 -7 -21 -8 -5 -9 11 0 27 4 35 9 18 11 5 11 -30 0z"/>
<path d="M1138 1693 c7 -3 16 -2 19 1 4 3 -2 6 -13 5 -11 0 -14 -3 -6 -6z"/>
<path d="M3800 1696 c0 -2 9 -6 20 -9 11 -3 20 -1 20 4 0 5 -9 9 -20 9 -11 0
-20 -2 -20 -4z"/>
<path d="M658 1678 c9 -9 9 -15 -1 -27 -11 -14 -10 -14 6 -2 13 10 15 17 6 27
-6 8 -14 14 -17 14 -3 0 -1 -5 6 -12z"/>
<path d="M1000 1681 c0 -10 19 -25 25 -20 1 2 -3 10 -11 17 -8 7 -14 8 -14 3z"/>
<path d="M1078 1683 c7 -3 16 -2 19 1 4 3 -2 6 -13 5 -11 0 -14 -3 -6 -6z"/>
<path d="M3075 1679 c-4 -6 -5 -12 -2 -15 2 -3 7 2 10 11 7 17 1 20 -8 4z"/>
<path d="M3460 1680 c-9 -6 -10 -10 -3 -10 6 0 15 5 18 10 8 12 4 12 -15 0z"/>
<path d="M3765 1660 c-3 -5 -1 -10 4 -10 6 0 11 5 11 10 0 6 -2 10 -4 10 -3 0
-8 -4 -11 -10z"/>
<path d="M3875 1650 c3 -5 8 -10 11 -10 2 0 4 5 4 10 0 6 -5 10 -11 10 -5 0
-7 -4 -4 -10z"/>
<path d="M448 1633 c7 -3 16 -2 19 1 4 3 -2 6 -13 5 -11 0 -14 -3 -6 -6z"/>
<path d="M645 1580 c-96 -5 -120 -11 -192 -42 l-83 -35 100 -7 c93 -6 104 -4
148 17 26 13 69 32 95 42 26 10 50 22 53 26 3 5 2 8 -3 7 -4 -1 -57 -5 -118
-8z"/>
<path d="M845 1563 c-33 -14 -82 -34 -110 -44 l-50 -18 115 -3 c206 -4 199 -5
278 42 40 23 72 44 72 46 0 2 -55 4 -122 3 -108 -1 -130 -4 -183 -26z"/>
<path d="M3032 1583 l-33 -4 63 -38 c35 -21 78 -42 96 -46 44 -9 284 5 257 16
-11 4 -57 24 -103 43 -75 32 -91 36 -165 34 -45 0 -97 -3 -115 -5z"/>
<path d="M3371 1575 c3 -2 49 -22 102 -45 101 -42 140 -47 252 -31 l50 6 -45
17 c-150 57 -154 58 -259 58 -57 0 -102 -2 -100 -5z"/>
<path d="M497 1417 l-68 -32 198 3 c170 3 203 7 235 23 69 35 57 39 -124 38
-173 -1 -173 -1 -241 -32z"/>
<path d="M3230 1445 c0 -2 19 -15 43 -29 40 -24 51 -25 228 -28 200 -3 204 -2
107 42 -37 17 -66 20 -210 20 -93 0 -168 -2 -168 -5z"/>
<path d="M920 1020 l-75 -69 124 -1 123 0 -30 34 c-17 19 -36 51 -43 70 -7 20
-15 36 -19 36 -3 0 -39 -32 -80 -70z"/>
<path d="M3130 1075 c0 -26 -30 -78 -58 -102 l-27 -23 125 0 125 0 -69 63
c-84 75 -96 83 -96 62z"/>
<path d="M1283 776 c-40 -73 -73 -136 -73 -139 0 -4 387 -7 860 -7 473 0 860
2 860 5 0 3 -18 40 -41 82 -23 43 -55 104 -71 136 l-31 57 -716 0 -716 -1 -72
-133z m817 59 c26 -31 -13 -82 -44 -56 -19 16 -21 57 -3 64 22 9 34 7 47 -8z"/>
<path d="M1530 1305 c-19 -22 -3 -52 32 -59 85 -17 194 -3 204 26 12 39 -12
48 -121 48 -77 0 -106 -4 -115 -15z"/>
<path d="M1924 1306 c-21 -54 26 -69 189 -59 104 5 107 6 113 30 4 16 2 28 -7
34 -8 5 -76 9 -152 9 -111 0 -139 -3 -143 -14z"/>
<path d="M2387 1313 c-4 -3 -7 -19 -7 -34 0 -25 4 -28 49 -34 28 -4 79 -4 115
0 52 6 67 11 72 27 12 39 -12 48 -121 48 -56 0 -105 -3 -108 -7z"/>
</g>
</svg>
